<?xml version="1.0" encoding="UTF-8" standalone="no"?>
<svg
   xmlns:dc="http://purl.org/dc/elements/1.1/"
   xmlns:cc="http://creativecommons.org/ns#"
   xmlns:rdf="http://www.w3.org/1999/02/22-rdf-syntax-ns#"
   xmlns:svg="http://www.w3.org/2000/svg"
   xmlns="http://www.w3.org/2000/svg"
   xmlns:sodipodi="http://sodipodi.sourceforge.net/DTD/sodipodi-0.dtd"
   xmlns:inkscape="http://www.inkscape.org/namespaces/inkscape"
   inkscape:version="1.0 (4035a4fb49, 2020-05-01)"
   sodipodi:docname="empty.svg"
   id="svg937"
   version="1.1"
   height="152"
   width="184">
  <metadata
     id="metadata943">
    <rdf:RDF>
      <cc:Work
         rdf:about="">
        <dc:format>image/svg+xml</dc:format>
        <dc:type
           rdf:resource="http://purl.org/dc/dcmitype/StillImage" />
      </cc:Work>
    </rdf:RDF>
  </metadata>
  <defs
     id="defs941" />
  <sodipodi:namedview
     inkscape:current-layer="svg937"
     inkscape:window-maximized="1"
     inkscape:window-y="1"
     inkscape:window-x="0"
     inkscape:cy="76"
     inkscape:cx="92"
     inkscape:zoom="2.2565789"
     showgrid="false"
     id="namedview939"
     inkscape:window-height="735"
     inkscape:window-width="1366"
     inkscape:pageshadow="2"
     inkscape:pageopacity="0"
     guidetolerance="10"
     gridtolerance="10"
     objecttolerance="10"
     borderopacity="1"
     bordercolor="#666666"
     pagecolor="#ffffff" />
  <ellipse
     id="ellipse915"
     ry="12.668"
     rx="67.796997"
     cy="138.56"
     cx="91.796997"
     fill="#f5f5f7"
     fill-opacity="0.8"
     style="fill-rule:evenodd" />
  <path
     id="path917"
     fill="#aeb8c2"
     d="M 146.034,101.344 122.109,71.899 c -1.148,-1.386 -2.826,-2.225 -4.593,-2.225 h -51.44 c -1.766,0 -3.444,0.839 -4.592,2.225 L 37.56,101.344 v 15.383 h 108.475 v -15.383 z"
     style="fill-rule:evenodd" />
  <path
     id="path919"
     fill="url(#linearGradient-1)"
     d="M 139.097,117.884 118.19,92.772 c -1.001,-1.207 -2.507,-1.867 -4.048,-1.867 H 69.284 c -1.54,0 -3.047,0.66 -4.048,1.867 l -20.907,25.112 v 13.792 h 94.768 z"
     style="fill-rule:evenodd" />
  <path
     id="path921"
     fill="#f5f5f7"
     d="m 57.83,31.67 h 67.933 a 4,4 0 0 1 4,4 v 93.344 a 4,4 0 0 1 -4,4 H 57.83 a 4,4 0 0 1 -4,-4 V 35.67 a 4,4 0 0 1 4,-4 z"
     style="fill-rule:evenodd;stroke:#ffffff;stroke-opacity:1;stroke-width:1.88976378;stroke-miterlimit:4;stroke-dasharray:none" />
  <path
     id="path923"
     fill="#dce0e6"
     d="m 66.678,41.623 h 50.237 a 2,2 0 0 1 2,2 V 68.58 a 2,2 0 0 1 -2,2 H 66.678 a 2,2 0 0 1 -2,-2 V 43.623 a 2,2 0 0 1 2,-2 z m 0.262,39.814 h 49.713 a 2.262,2.262 0 1 1 0,4.524 H 66.94 a 2.262,2.262 0 0 1 0,-4.524 z m 0,11.763 h 49.713 a 2.2625,2.2625 0 1 1 0,4.525 H 66.94 a 2.2625,2.2625 0 0 1 0,-4.525 z m 78.873,43.502 c -0.775,3.071 -3.497,5.36 -6.735,5.36 H 44.515 c -3.238,0 -5.96,-2.29 -6.734,-5.36 a 7.309,7.309 0 0 1 -0.222,-1.79 v -33.567 h 26.318 c 2.907,0 5.25,2.448 5.25,5.42 v 0.04 c 0,2.971 2.37,5.37 5.277,5.37 h 34.785 c 2.907,0 5.277,-2.421 5.277,-5.393 v -0.012 c 0,-2.972 2.343,-5.426 5.25,-5.426 h 26.318 v 33.569 c 0,0.617 -0.077,1.216 -0.221,1.789 z"
     style="fill-rule:evenodd;stroke-width:0.94488189;stroke-miterlimit:4;stroke-dasharray:none;stroke:#ffffff;stroke-opacity:1" />
</svg>
