<?xml version="1.0" encoding="UTF-8" standalone="no"?>
<svg
   xmlns:dc="http://purl.org/dc/elements/1.1/"
   xmlns:cc="http://creativecommons.org/ns#"
   xmlns:rdf="http://www.w3.org/1999/02/22-rdf-syntax-ns#"
   xmlns:svg="http://www.w3.org/2000/svg"
   xmlns="http://www.w3.org/2000/svg"
   xmlns:sodipodi="http://sodipodi.sourceforge.net/DTD/sodipodi-0.dtd"
   xmlns:inkscape="http://www.inkscape.org/namespaces/inkscape"
   inkscape:version="1.0 (4035a4fb49, 2020-05-01)"
   sodipodi:docname="user.svg"
   xml:space="preserve"
   style="enable-background:new 0 0 53 53;"
   viewBox="0 0 53 53"
   y="0px"
   x="0px"
   id="Capa_1"
   version="1.1"><metadata
   id="metadata43"><rdf:RDF><cc:Work
       rdf:about=""><dc:format>image/svg+xml</dc:format><dc:type
         rdf:resource="http://purl.org/dc/dcmitype/StillImage" /></cc:Work></rdf:RDF></metadata><defs
   id="defs41" /><sodipodi:namedview
   inkscape:document-rotation="0"
   inkscape:current-layer="Capa_1"
   inkscape:window-maximized="1"
   inkscape:window-y="1"
   inkscape:window-x="0"
   inkscape:cy="71.415254"
   inkscape:cx="26.5"
   inkscape:zoom="4.4528302"
   showgrid="false"
   id="namedview39"
   inkscape:window-height="735"
   inkscape:window-width="1366"
   inkscape:pageshadow="2"
   inkscape:pageopacity="0"
   guidetolerance="10"
   gridtolerance="10"
   objecttolerance="10"
   borderopacity="1"
   bordercolor="#666666"
   pagecolor="#ffffff" />
<circle
   r="26.5"
   cy="26.5"
   cx="26.5"
   id="path889"
   style="fill:#1e1e1e;fill-opacity:0.2;stroke:none;stroke-width:14.5789938;stroke-miterlimit:4;stroke-dasharray:none;stroke-dashoffset:9.82677174;stroke-opacity:1" /><path
   inkscape:connector-curvature="0"
   id="path2"
   d="m 18.613,41.327 -7.907,4.313 c -0.464,0.253 -0.881,0.564 -1.269,0.903 4.61,3.887 10.561,6.232 17.063,6.232 6.454,0 12.367,-2.31 16.964,-6.144 -0.424,-0.358 -0.884,-0.68 -1.394,-0.934 l -8.467,-4.233 c -1.094,-0.547 -1.785,-1.665 -1.785,-2.888 v -3.322 c 0.238,-0.271 0.51,-0.619 0.801,-1.03 1.154,-1.63 2.027,-3.423 2.632,-5.304 1.086,-0.335 1.886,-1.338 1.886,-2.53 v -3.546 c 0,-0.78 -0.347,-1.477 -0.886,-1.965 v -5.126 c 0,0 1.053,-7.977 -9.75,-7.977 -10.803,0 -9.75,7.977 -9.75,7.977 v 5.126 c -0.54,0.488 -0.886,1.185 -0.886,1.965 v 3.546 c 0,0.934 0.491,1.756 1.226,2.231 0.886,3.857 3.206,6.633 3.206,6.633 v 3.24 c -0.001,1.18 -0.647,2.267 -1.684,2.833 z"
   style="fill:#ffffff;fill-opacity:1" />

<g
   id="g8">
</g>
<g
   id="g10">
</g>
<g
   id="g12">
</g>
<g
   id="g14">
</g>
<g
   id="g16">
</g>
<g
   id="g18">
</g>
<g
   id="g20">
</g>
<g
   id="g22">
</g>
<g
   id="g24">
</g>
<g
   id="g26">
</g>
<g
   id="g28">
</g>
<g
   id="g30">
</g>
<g
   id="g32">
</g>
<g
   id="g34">
</g>
<g
   id="g36">
</g>
</svg>
